<?xml version="1.0" standalone="no"?>
<!DOCTYPE svg PUBLIC "-//W3C//DTD SVG 20010904//EN"
 "http://www.w3.org/TR/2001/REC-SVG-20010904/DTD/svg10.dtd">
<svg version="1.0" xmlns="http://www.w3.org/2000/svg"
 width="500.000000pt" height="500.000000pt" viewBox="0 0 500.000000 500.000000"
 preserveAspectRatio="xMidYMid meet">
<metadata>
Created by potrace 1.14, written by Peter Selinger 2001-2017
</metadata>
<g transform="translate(0.000000,500.000000) scale(0.100000,-0.100000)"
fill="#000000" stroke="none">
<path d="M2305 4500 c-259 -46 -457 -142 -610 -295 -212 -210 -307 -484 -292
-839 10 -257 75 -436 234 -646 135 -178 413 -388 967 -731 242 -149 318 -226
367 -367 25 -73 27 -222 3 -302 -41 -141 -148 -243 -314 -301 -93 -32 -308
-33 -424 -1 -150 41 -345 139 -427 213 -23 21 -46 36 -50 33 -5 -2 -42 28 -84
67 -41 40 -77 70 -80 68 -8 -9 -285 -581 -285 -590 0 -16 73 -78 211 -179 34
-25 67 -50 73 -55 29 -27 169 -112 246 -150 99 -50 292 -116 400 -138 41 -8
104 -21 140 -29 44 -9 141 -13 300 -12 205 0 249 3 340 23 513 110 813 413
884 893 41 271 0 542 -112 747 -70 128 -174 251 -302 357 -217 181 -364 282
-765 527 -236 144 -300 201 -359 320 -34 69 -38 87 -43 177 -7 123 8 201 54
278 93 155 205 212 414 212 183 0 358 -63 449 -161 33 -36 50 -47 65 -44 15 4
37 -12 89 -65 38 -39 70 -69 71 -68 1 2 23 43 49 91 26 49 60 110 77 136 16
27 29 51 29 55 0 3 10 23 23 44 13 20 49 85 80 144 l56 106 -47 39 c-26 21
-51 41 -57 45 -5 4 -26 20 -45 36 -268 220 -491 324 -795 367 -141 21 -404 18
-530 -5z"/>
</g>
</svg>
